<svg id="Layer_1" data-name="Layer 1" xmlns="http://www.w3.org/2000/svg"
     viewBox="0 0 30 36">
    <defs>
        <style>.bonfire-logo-1{fill:#f49879;}.bonfire-logo-2{fill:#3d4853;}</style>
    </defs>
    <title>logo</title>
    <path class="bonfire-logo-1"
          d="M99.21,175.83a14.54,14.54,0,0,0-.11-1.56,13.66,13.66,0,0,0-1.21-4.35l-0.25-.48,0-.08H97.5l-0.44,0a15.63,15.63,0,0,0-3.59.76l-0.36.13,0-.3a19.74,19.74,0,0,0-1.18-4.31,17.57,17.57,0,0,0-1.11-2.24,19.49,19.49,0,0,0-3.14-3.87A14.43,14.43,0,0,0,85.58,158l-0.17-.11-0.08-.05-0.08.05-0.16.11a16.59,16.59,0,0,0-4.4,4.48,20.82,20.82,0,0,0-2.24,4.22,14.66,14.66,0,0,0-.88,3.31c0,0.11,0,.21,0,0.32s-0.36-.15-1-0.33h0l-0.23-.06a21.59,21.59,0,0,0-3.27-.59l-0.38.93h0c-0.11.25-.22,0.5-0.32,0.76a14.15,14.15,0,0,0-.86,6,15.79,15.79,0,0,0,.68,3.65,16.77,16.77,0,0,0,5.47,8.08,12.77,12.77,0,0,0,2.78,1.79,12,12,0,0,0,5,1.12h0.24a13.23,13.23,0,0,0,5.34-1.52c0.38-.21.76-0.46,0.77-0.46a14.57,14.57,0,0,0,1.47-1.09,16.76,16.76,0,0,0,3.54-4.1,17.15,17.15,0,0,0,2.12-5A15.32,15.32,0,0,0,99.21,175.83ZM85.39,185a13.76,13.76,0,0,1-.74,4.36,13.54,13.54,0,0,1-7.43-4,14.23,14.23,0,0,1-2.85-4.94v0a13.17,13.17,0,0,1-.73-4.89,13.43,13.43,0,0,1,.74-3.66l0-.06,0.13,0a14.23,14.23,0,0,1,2.59.72l0.25,0.1a13.55,13.55,0,0,1,3,1.93,13.1,13.1,0,0,1,3.42,4.32c0.19,0.4.35,0.82,0.45,1.07v0a15.08,15.08,0,0,1,1,3.05A10.59,10.59,0,0,1,85.39,185Zm-0.07-8a17.1,17.1,0,0,0-1.75-2.43,14.27,14.27,0,0,0-1.23-1.29A15,15,0,0,0,81,172.12c-0.42-.3-0.86-0.58-1.3-0.84a16.61,16.61,0,0,1,.36-2.08,16.3,16.3,0,0,1,2.19-5.14,17.17,17.17,0,0,1,2.11-2.58c0.33-.33.68-0.66,1-1a14.83,14.83,0,0,1,3.88,4.62,16.3,16.3,0,0,1,1.33,3.48,16.87,16.87,0,0,1,.47,2.66,15.55,15.55,0,0,0-3.39,2.64A16.16,16.16,0,0,0,85.32,177ZM95,183.07a13.42,13.42,0,0,1-8,6.05,14.36,14.36,0,0,0,.51-2.65,15,15,0,0,0,0-2.75,15.88,15.88,0,0,0-1-4.28,14.25,14.25,0,0,1,1.69-2.82,13.72,13.72,0,0,1,2.25-2.32,12.71,12.71,0,0,1,2.86-1.72,12.35,12.35,0,0,1,2.93-.85,17.21,17.21,0,0,1,.44,1.67c0.21,1.29.31,2.29,0.32,2.39A13.26,13.26,0,0,1,95,183.07Z"
          transform="translate(-71.39 -157.8)"></path>
</svg>