<?xml version="1.0" encoding="iso-8859-1"?>
<!-- Generator: Adobe Illustrator 19.0.0, SVG Export Plug-In . SVG Version: 6.00 Build 0)  -->
<svg version="1.1" id="Layer_1" xmlns="http://www.w3.org/2000/svg" xmlns:xlink="http://www.w3.org/1999/xlink" x="0px" y="0px"
	 viewBox="0 0 504.123 504.123" style="enable-background:new 0 0 504.123 504.123;" xml:space="preserve">
<circle style="fill:#FFD05B;" cx="252.062" cy="252.062" r="252.062"/>
<path style="fill:#84DBFF;" d="M353.28,136.271H150.843c-1.969,0-3.938,0.788-5.514,2.363l-48.443,48.837
	c-1.575,1.182-2.363,3.151-2.363,5.514v166.203c0,4.332,3.545,7.877,7.877,7.877h299.323c4.332,0,7.877-3.545,7.877-7.877V192.985
	c0-1.969-0.788-3.938-2.363-5.514l-48.443-48.837C357.218,137.058,355.249,136.271,353.28,136.271z"/>
<path style="fill:#54C0EB;" d="M346.585,159.902H157.538l-39.385,39.385v144.148h267.815V199.286L346.585,159.902z M378.092,335.557
	H126.031V202.831l34.658-34.658H343.04l34.658,34.658v132.726H378.092z"/>
<circle style="fill:#F1543F;" cx="252.062" cy="114.609" r="11.422"/>
<g>
	<path style="fill:#2B3B4E;" d="M190.622,294.203c-5.514,5.514-12.603,8.271-20.48,8.271s-14.966-2.757-20.48-8.271
		c-5.514-5.514-8.271-12.209-8.271-20.48c0-8.271,2.757-14.966,8.271-20.48c5.514-5.514,12.603-8.271,20.48-8.271
		s14.966,2.757,20.48,8.271c5.514,5.514,8.271,12.209,8.271,20.48C198.892,281.994,196.135,288.689,190.622,294.203z
		 M186.289,273.723c0-5.12-1.575-9.058-4.726-12.603c-3.151-3.545-7.089-5.12-11.815-5.12c-4.726,0-8.665,1.575-11.815,5.12
		c-3.151,3.545-4.726,7.877-4.726,12.603c0,5.12,1.575,9.058,4.726,12.603c3.151,3.545,7.089,5.12,11.815,5.12
		c4.726,0,8.665-1.575,11.815-5.12C184.714,282.782,186.289,278.843,186.289,273.723z"/>
	<path style="fill:#2B3B4E;" d="M247.729,251.274c3.938,3.151,5.908,8.271,5.908,15.36c0,6.695-1.969,11.815-5.908,14.966
		s-10.24,4.726-18.117,4.726h-7.483v15.36H209.92v-55.138h19.692C237.489,246.548,243.791,248.123,247.729,251.274z
		 M238.671,273.329c1.575-1.575,2.363-3.938,2.363-7.089s-0.788-5.514-2.757-6.695c-1.969-1.182-4.726-1.969-9.058-1.969h-7.089
		v18.117h8.271C234.338,275.692,237.095,274.905,238.671,273.329z"/>
	<path style="fill:#2B3B4E;" d="M302.868,246.548v11.028h-27.569v11.422h24.812v10.634h-24.812v11.422h28.357v11.028h-40.566
		v-55.138h39.778V246.548z"/>
	<path style="fill:#2B3B4E;" d="M353.674,246.548h12.209v55.138h-12.209l-26.388-34.658v34.658h-12.209v-55.138h11.422
		l27.175,35.446L353.674,246.548L353.674,246.548z"/>
</g>

<path style="fill:#FFFFFF;" d="M333.982,190.228c-1.575,0-3.151-0.788-4.332-1.969l-77.588-91.372l-77.194,91.372
	c-1.969,2.363-5.908,2.757-8.271,0.788c-2.363-1.969-2.757-5.908-0.788-8.271l81.92-96.492c2.363-2.757,6.695-2.757,9.058,0
	l81.92,96.492c1.969,2.363,1.969,6.302-0.788,8.271C336.345,189.834,335.163,190.228,333.982,190.228z"/>
<g>
</g>
<g>
</g>
<g>
</g>
<g>
</g>
<g>
</g>
<g>
</g>
<g>
</g>
<g>
</g>
<g>
</g>
<g>
</g>
<g>
</g>
<g>
</g>
<g>
</g>
<g>
</g>
<g>
</g>
</svg>
