<svg width="491.2" height="491.2" xmlns="http://www.w3.org/2000/svg">

 <g>
  <title>Layer 1</title>
  <path id="svg_1" fill="#FFA300" d="m472.9,463.2l-29.6,-444c-1.6,-11.2 -9.6,-19.2 -20,-19.2l-355.2,0c-10.4,0 -18.4,8 -20,19.2l-30.4,446.4c-0.8,6.4 0.8,12.8 4.8,17.6c4,4.8 9.6,8 15.2,8l416,0l0,0c11.2,0 20,-10.4 20,-22.4c0,-2.4 0,-4 -0.8,-5.6z"/>
  <path id="svg_2" fill="#FF8500" d="m453.7,491.2l0,0c11.2,0 20,-10.4 20,-22.4c0,-2.4 0,-4 -0.8,-5.6l-29.6,-444c-1.6,-11.2 -9.6,-19.2 -20,-19.2l-355.2,0c-10.4,0 -18.4,8 -20,19.2"/>
  <path id="svg_3" fill="#FF8500" d="m245.7,260c-79.2,0 -143.2,-98.4 -143.2,-177.6c0,-8 6.4,-14.4 14.4,-14.4s14.4,6.4 14.4,14.4c0,63.2 51.2,114.4 114.4,114.4s114.4,-51.2 114.4,-114.4c0,-8 6.4,-14.4 14.4,-14.4s14.4,6.4 14.4,14.4c0,78.4 -64,177.6 -143.2,177.6z"/>
  <g id="svg_4">
   <path id="svg_5" fill="#FF7300" d="m131.3,82.4c0,-8 -6.4,-14.4 -14.4,-14.4s-14.4,6.4 -14.4,14.4l0,0.8l37.6,44c-5.6,-13.6 -8.8,-28.8 -8.8,-44.8z"/>
   <path id="svg_6" fill="#FF7300" d="m388.9,82.4c0,-8 -6.4,-14.4 -14.4,-14.4s-14.4,6.4 -14.4,14.4c0,63.2 -51.2,114.4 -114.4,114.4c-22.4,0 -43.2,-6.4 -60.8,-17.6l68.8,80c75.2,-6.4 135.2,-100.8 135.2,-176.8z"/>
  </g>
  <path id="svg_7" fill="#AFF9F9" d="m245.7,224.8c-79.2,0 -143.2,-64 -143.2,-143.2c0,-8 6.4,-14.4 14.4,-14.4s14.4,6.4 14.4,14.4c0,63.2 51.2,114.4 114.4,114.4s114.4,-51.2 114.4,-114.4c0,-8 6.4,-14.4 14.4,-14.4s14.4,6.4 14.4,14.4c0,79.2 -64,143.2 -143.2,143.2z"/>
  <g id="svg_8">
   <path id="svg_9" fill="#7CECF2" d="m374.5,68c-8,0 -14.4,6.4 -14.4,14.4c0,46.4 -28,86.4 -68,104c48.8,-16.8 85.6,-59.2 94.4,-112c-2.4,-4 -7.2,-6.4 -12,-6.4z"/>
   <path id="svg_10" fill="#7CECF2" d="m131.3,82.4c0,-8 -6.4,-14.4 -14.4,-14.4c-5.6,0 -9.6,3.2 -12,7.2c8.8,52 45.6,94.4 94.4,112c-40,-18.4 -68,-58.4 -68,-104.8z"/>
  </g>
  <g stroke="null" id="svg_11">
   <path stroke="null" id="svg_12" fill="#2B3B4E" d="m166.437869,373.319362c-7.061413,8.103092 -16.139825,12.154638 -26.227375,12.154638s-19.165962,-4.051546 -26.227375,-12.154638c-7.061413,-8.103092 -10.59212,-17.941722 -10.59212,-30.09636c0,-12.154638 3.530707,-21.993268 10.59212,-30.09636c7.061413,-8.103092 16.139825,-12.154638 26.227375,-12.154638s19.165962,4.051546 26.227375,12.154638c7.061413,8.103092 10.59212,17.941722 10.59212,30.09636c-0.001281,12.154638 -3.531987,21.993268 -10.59212,30.09636zm-5.548985,-30.09636c0,-7.52409 -2.016998,-13.311173 -6.052274,-18.520724c-4.035276,-5.209551 -9.078411,-7.52409 -15.130686,-7.52409c-6.052274,0 -11.09669,2.314539 -15.130686,7.52409c-4.035276,5.209551 -6.052274,11.575636 -6.052274,18.520724c0,7.52409 2.016998,13.311173 6.052274,18.520724c4.035276,5.209551 9.078411,7.52409 15.130686,7.52409c6.052274,0 11.09669,-2.314539 15.130686,-7.52409c4.035276,-5.208081 6.052274,-10.996634 6.052274,-18.520724z"/>
   <path stroke="null" id="svg_13" fill="#2B3B4E" d="m239.571011,310.233101c5.043135,4.630548 7.565983,12.154638 7.565983,22.57227c0,9.838629 -2.521567,17.362719 -7.565983,21.993268s-13.113688,6.945088 -23.201238,6.945088l-9.582981,0l0,22.57227l-15.635255,0l0,-81.027983l25.218236,0c10.087551,0 18.158103,2.314539 23.201238,6.945088zm-11.599979,32.410899c2.016998,-2.314539 3.026137,-5.787083 3.026137,-10.417632s-1.009139,-8.103092 -3.530707,-9.838629c-2.521567,-1.737007 -6.052274,-2.893542 -11.599979,-2.893542l-9.078411,0l0,26.623816l10.59212,0c5.041854,-0.00147 8.572561,-1.158004 10.59084,-3.474013z"/>
   <path stroke="null" id="svg_14" fill="#2B3B4E" d="m310.183865,303.288013l0,16.206184l-35.305787,0l0,16.785187l31.77508,0l0,15.627182l-31.77508,0l0,16.785187l36.314926,0l0,16.206184l-51.950181,0l0,-81.027983l50.941042,0l0,-0.581941z"/>
   <path stroke="null" id="svg_15" fill="#2B3B4E" d="m375.247734,303.288013l15.635255,0l0,81.027983l-15.635255,0l-33.793359,-50.931623l0,50.931623l-15.635255,0l0,-81.027983l14.627397,0l34.801217,52.089628l0,-52.089628l0,0z"/>
  </g>
  <path id="svg_16" fill="#FF7300" d="m17.7,465.6c-0.8,6.4 0.8,12.8 4.8,17.6c4,4.8 9.6,8 15.2,8l416,0l0,0c11.2,0 20,-10.4 20,-22.4c0,-2.4 0,-4 -0.8,-5.6"/>
 </g>
</svg>
